<svg width="22" height="21" viewBox="0 0 22 21" fill="none" xmlns="http://www.w3.org/2000/svg">
<path d="M12.6461 1.40657L11.5561 0.33902C11.0945 -0.113007 10.3482 -0.113007 9.89153 0.33902L0.346165 9.68251C-0.115391 10.1345 -0.115391 10.8655 0.346165 11.3127L9.89153 20.661C10.3531 21.113 11.0994 21.113 11.5561 20.661L12.6461 19.5934C13.1126 19.1366 13.1028 18.3912 12.6265 17.944L6.70974 12.4235H20.8216C21.4746 12.4235 22 11.909 22 11.2694V9.73059C22 9.09102 21.4746 8.57648 20.8216 8.57648H6.70974L12.6265 3.05599C13.1077 2.60877 13.1175 1.86341 12.6461 1.40657Z" fill="#7D7D7D"/>
</svg>
