<svg width="292" height="169" viewBox="0 0 292 169" fill="none" xmlns="http://www.w3.org/2000/svg">
<path d="M0 0H292V169H0V0Z" fill="#FAFAFA"/>
<path d="M0.5 0.5H291.5V168.5H0.5V0.5Z" stroke="#D0D0D0" stroke-opacity="0.5"/>
<path d="M130 78.6C130 76.6118 131.693 75 133.78 75C135.868 75 137.561 76.6118 137.561 78.6C137.561 80.5882 135.868 82.2 133.78 82.2C131.693 82.2 130 80.5882 130 78.6Z" fill="#959595"/>
<path d="M161 93H130.756V88.68L134.491 85.1236C134.934 84.7019 135.652 84.7019 136.095 85.1236L139.829 88.68L151.125 77.9237C151.568 77.5019 152.286 77.5019 152.729 77.9237L161 85.8V93Z" fill="#959595"/>
</svg>
