<svg width="24" height="25" viewBox="0 0 24 25" fill="none" xmlns="http://www.w3.org/2000/svg">
    <path d="M12.7087 2.76249C12.5109 2.5942 12.2597 2.50179 12 2.50179C11.7403 2.50179 11.4891 2.5942 11.2912 2.76249L2.76 10.0145C2.63921 10.1173 2.54221 10.2451 2.47573 10.3891C2.40925 10.533 2.37488 10.6898 2.375 10.8484V22.1875C2.375 22.3035 2.42109 22.4148 2.50314 22.4969C2.58519 22.5789 2.69647 22.625 2.8125 22.625H7.1875C7.30353 22.625 7.41481 22.5789 7.49686 22.4969C7.57891 22.4148 7.625 22.3035 7.625 22.1875V16.0625C7.625 15.4823 7.85547 14.9259 8.2657 14.5157C8.67594 14.1055 9.23234 13.875 9.8125 13.875H13.75C14.0373 13.875 14.3217 13.9316 14.5871 14.0415C14.8525 14.1514 15.0937 14.3126 15.2968 14.5157C15.4999 14.7188 15.6611 14.96 15.771 15.2254C15.8809 15.4908 15.9375 15.7752 15.9375 16.0625V22.1875C15.9375 22.3035 15.9836 22.4148 16.0656 22.4969C16.1477 22.5789 16.259 22.625 16.375 22.625H21.1875C21.3035 22.625 21.4148 22.5789 21.4969 22.4969C21.5789 22.4148 21.625 22.3035 21.625 22.1875V10.8475C21.625 10.689 21.5906 10.5325 21.5241 10.3887C21.4576 10.2448 21.3607 10.1172 21.24 10.0145L12.7087 2.76337V2.76249ZM10.1581 1.42987C10.6723 0.992773 11.3252 0.752777 12 0.752777C12.6748 0.752777 13.3277 0.992773 13.8419 1.42987L22.3731 8.68099C22.6871 8.94794 22.9394 9.27995 23.1124 9.65404C23.2854 10.0281 23.375 10.4353 23.375 10.8475V22.1875C23.375 22.7677 23.1445 23.3241 22.7343 23.7343C22.3241 24.1445 21.7677 24.375 21.1875 24.375H16.375C15.7948 24.375 15.2384 24.1445 14.8282 23.7343C14.418 23.3241 14.1875 22.7677 14.1875 22.1875V16.0625C14.1875 15.9465 14.1414 15.8352 14.0594 15.7531C13.9773 15.6711 13.866 15.625 13.75 15.625H9.8125C9.69647 15.625 9.58519 15.6711 9.50314 15.7531C9.42109 15.8352 9.375 15.9465 9.375 16.0625V22.1875C9.375 22.7677 9.14453 23.3241 8.7343 23.7343C8.32406 24.1445 7.76766 24.375 7.1875 24.375H2.8125C2.23234 24.375 1.67594 24.1445 1.2657 23.7343C0.855468 23.3241 0.625 22.7677 0.625 22.1875V10.8475C0.625023 10.4353 0.714634 10.0281 0.887626 9.65404C1.06062 9.27995 1.31286 8.94794 1.62687 8.68099L10.1581 1.42987Z" fill="#7D7D7D"/>
</svg>
