<svg width="23" height="28" viewBox="0 0 23 28" fill="none" xmlns="http://www.w3.org/2000/svg">
<path d="M11.2006 0C5.04448 0 0 4.67824 0 10.3874C0 12.5994 0.75992 14.6549 2.04568 16.345L9.83388 27.1054C10.9245 28.4304 11.6494 28.1789 12.5563 27.0354L21.1467 15.2012C21.3203 14.9092 21.4564 14.5984 21.5751 14.2811C22.1052 13.0766 22.4 11.7628 22.4 10.3874C22.4 4.67824 17.3569 0 11.2006 0ZM9.01992 6.00824C9.78544 6.00824 10.5146 6.40528 11.17 6.76396C11.8252 6.40528 12.5544 6.00824 13.3199 6.00796C15.6761 6.00796 17.6 7.79716 17.6 9.98872V9.9974C17.5708 11.851 15.9659 13.5682 14.4687 14.9226C12.9716 16.2772 11.4862 17.2404 11.4862 17.2404C11.3757 17.311 11.2472 17.348 11.1161 17.3472C10.9851 17.3463 10.8571 17.3076 10.7475 17.2357C10.7475 17.2357 9.3562 16.3103 7.92064 14.9755C6.48508 13.641 4.93696 11.9151 4.7432 10.0458C4.74116 10.0269 4.74013 10.0078 4.74012 9.98872C4.74012 7.79744 6.66372 6.00824 9.01992 6.00824Z" fill="#7D7D7D"/>
</svg>
