<svg width="48" height="48" viewBox="0 0 56 56" fill="none" xmlns="http://www.w3.org/2000/svg">
<rect x="4" y="4" width="48" height="48" rx="24" fill="#CADFCA"/>
<rect x="4" y="4" width="48" height="48" rx="24" stroke="#DAE8DA" stroke-width="8"/>
<path d="M19.6 32C17.3784 32.8471 16 34.0273 16 35.3329C16 37.9105 21.3726 40 28 40C34.6275 40 40 37.9105 40 35.3329C40 34.0273 38.6216 32.8471 36.4 32M28 24H28.0133M36 24C36 29.4183 30 32 28 36C26 32 20 29.4183 20 24C20 19.5817 23.5817 16 28 16C32.4183 16 36 19.5817 36 24ZM29.3333 24C29.3333 24.7364 28.7364 25.3333 28 25.3333C27.2636 25.3333 26.6667 24.7364 26.6667 24C26.6667 23.2636 27.2636 22.6667 28 22.6667C28.7364 22.6667 29.3333 23.2636 29.3333 24Z" stroke="#4E944F" stroke-width="3" stroke-linecap="round" stroke-linejoin="round"/>
</svg>
