<svg width="25" height="25" viewBox="0 0 25 25" fill="none" xmlns="http://www.w3.org/2000/svg">
<path d="M15.625 23.6979H9.37504C3.71879 23.6979 1.30212 21.2813 1.30212 15.625V9.37501C1.30212 3.71876 3.71879 1.30209 9.37504 1.30209H15.625C21.2813 1.30209 23.698 3.71876 23.698 9.37501V15.625C23.698 21.2813 21.2813 23.6979 15.625 23.6979ZM9.37504 2.86459C4.57296 2.86459 2.86462 4.57293 2.86462 9.37501V15.625C2.86462 20.4271 4.57296 22.1354 9.37504 22.1354H15.625C20.4271 22.1354 22.1355 20.4271 22.1355 15.625V9.37501C22.1355 4.57293 20.4271 2.86459 15.625 2.86459H9.37504Z" fill="#7D7D7D"/>
<path d="M14.3333 18.4896H10.6562C9.51037 18.4896 8.60412 17.9271 8.09371 16.9062L7.16663 15.0417C6.94788 14.5937 6.49996 14.3229 5.99996 14.3229H2.07288C1.64579 14.3229 1.29163 13.9687 1.29163 13.5417C1.29163 13.1146 1.65621 12.7604 2.08329 12.7604H5.99996C7.09371 12.7604 8.07288 13.3646 8.56246 14.3437L9.48954 16.2083C9.72912 16.6875 10.1145 16.9271 10.6562 16.9271H14.3333C14.8333 16.9271 15.2812 16.6562 15.5 16.2083L16.427 14.3437C16.9166 13.3646 17.8958 12.7604 18.9895 12.7604H22.8854C23.3125 12.7604 23.6666 13.1146 23.6666 13.5417C23.6666 13.9687 23.3125 14.3229 22.8854 14.3229H18.9895C18.4895 14.3229 18.0416 14.5937 17.8229 15.0417L16.8958 16.9062C16.4062 17.8854 15.427 18.4896 14.3333 18.4896Z" fill="#7D7D7D"/>
</svg>
