<svg width="12" height="12" viewBox="0 0 12 12" fill="none" xmlns="http://www.w3.org/2000/svg">
<g clip-path="url(#clip0_1183_1557)">
<path d="M8.99981 11.25L8.99981 9.7125C9.86231 9.525 10.4998 8.775 10.4998 7.875C10.4998 6.975 9.86231 6.225 8.99981 6.0375L8.99981 0.75L8.24981 0.75L8.24981 6.0375C7.38731 6.225 6.74981 6.975 6.74981 7.875C6.74981 8.775 7.38731 9.525 8.24981 9.7125L8.24981 11.25L8.99981 11.25ZM7.49981 7.875C7.49981 7.2375 7.98731 6.75 8.62481 6.75C9.26231 6.75 9.74981 7.2375 9.74981 7.875C9.74981 8.5125 9.26231 9 8.62481 9C7.98731 9 7.49981 8.5125 7.49981 7.875ZM2.99981 0.75L2.99981 2.2875C2.13731 2.475 1.49981 3.225 1.49981 4.125C1.49981 5.025 2.13731 5.775 2.99981 5.9625L2.99981 11.25L3.74981 11.25L3.74981 5.9625C4.61231 5.775 5.24981 5.025 5.24981 4.125C5.24981 3.225 4.61231 2.475 3.74981 2.2875L3.74981 0.75L2.99981 0.75ZM4.49981 4.125C4.49981 4.7625 4.01231 5.25 3.37481 5.25C2.73731 5.25 2.24981 4.7625 2.24981 4.125C2.24981 3.4875 2.73731 3 3.37481 3C4.01231 3 4.49981 3.4875 4.49981 4.125Z" fill="#7D7D7D"/>
</g>
<defs>
<clipPath id="clip0_1183_1557">
<path d="M5.99981 -2.68665e-07C9.31352 -1.20285e-07 11.9998 2.68629 11.9998 6C11.9998 9.31371 9.31352 12 5.99981 12C2.6861 12 -0.000190179 9.31371 -0.000190037 6C-0.000189896 2.68629 2.6861 -4.17045e-07 5.99981 -2.68665e-07Z" fill="white"/>
</clipPath>
</defs>
</svg>
