<svg width="146" height="145" viewBox="0 0 146 145" fill="none" xmlns="http://www.w3.org/2000/svg">
<circle cx="73" cy="72.5" r="72.5" fill="white"/>
<path d="M73 39C77.4424 39 81.7028 40.7647 84.844 43.906C87.9853 47.0472 89.75 51.3076 89.75 55.75C89.75 60.1924 87.9853 64.4528 84.844 67.594C81.7028 70.7353 77.4424 72.5 73 72.5C68.5576 72.5 64.2972 70.7353 61.156 67.594C58.0147 64.4528 56.25 60.1924 56.25 55.75C56.25 51.3076 58.0147 47.0472 61.156 43.906C64.2972 40.7647 68.5576 39 73 39ZM73 80.875C91.5088 80.875 106.5 88.3706 106.5 97.625V106H39.5V97.625C39.5 88.3706 54.4913 80.875 73 80.875Z" fill="#4E944F"/>
</svg>
