<svg width="25" height="25" viewBox="0 0 25 25" fill="none" xmlns="http://www.w3.org/2000/svg">
<path d="M17.7083 23.6979H7.29165C2.6979 23.6979 1.30206 22.3021 1.30206 17.7083V7.29168C1.30206 2.69793 2.6979 1.30209 7.29165 1.30209H8.85415C10.6771 1.30209 11.25 1.89584 11.9791 2.86459L13.5416 4.94793C13.8854 5.40626 13.9375 5.46876 14.5833 5.46876H17.7083C22.3021 5.46876 23.6979 6.86459 23.6979 11.4583V17.7083C23.6979 22.3021 22.3021 23.6979 17.7083 23.6979ZM7.29165 2.86459C3.56248 2.86459 2.86456 3.57293 2.86456 7.29168V17.7083C2.86456 21.4271 3.56248 22.1354 7.29165 22.1354H17.7083C21.4375 22.1354 22.1354 21.4271 22.1354 17.7083V11.4583C22.1354 7.73959 21.4375 7.03126 17.7083 7.03126H14.5833C13.25 7.03126 12.8125 6.57293 12.2916 5.88543L10.7291 3.80209C10.1875 3.08334 10.0208 2.86459 8.85415 2.86459H7.29165Z" fill="#7D7D7D"/>
<path d="M20.8333 7.42709C20.4062 7.42709 20.0521 7.07293 20.0521 6.64584V5.20834C20.0521 3.56251 19.3541 2.86459 17.7083 2.86459H8.33331C7.90623 2.86459 7.55206 2.51043 7.55206 2.08334C7.55206 1.65626 7.90623 1.30209 8.33331 1.30209H17.7083C20.2291 1.30209 21.6146 2.68751 21.6146 5.20834V6.64584C21.6146 7.07293 21.2604 7.42709 20.8333 7.42709Z" fill="#7D7D7D"/>
</svg>
