<svg width="56" height="57" viewBox="0 0 56 57" fill="none" xmlns="http://www.w3.org/2000/svg">
<rect x="4" y="4.5" width="48" height="48" rx="24" fill="#CADFCA"/>
<rect x="4" y="4.5" width="48" height="48" rx="24" stroke="#DAE8DA" stroke-width="8"/>
<g clip-path="url(#clip0_914_2096)">
<path d="M39.8359 25.294C39.6314 24.6429 39.2227 24.0749 38.6704 23.674C38.1181 23.2731 37.4514 23.0606 36.7689 23.068H32.3999L31.0729 18.932C30.8643 18.2809 30.4542 17.713 29.9019 17.31C29.3496 16.9071 28.6836 16.6899 27.9999 16.6899C27.3163 16.6899 26.6503 16.9071 26.098 17.31C25.5457 17.713 25.1356 18.2809 24.9269 18.932L23.5999 23.068H19.2309C18.5507 23.0689 17.8881 23.2848 17.3379 23.6849C16.7877 24.0849 16.378 24.6485 16.1673 25.2953C15.9566 25.9421 15.9556 26.639 16.1646 27.2863C16.3736 27.9337 16.7818 28.4985 17.3309 28.9L20.8869 31.5L19.5349 35.687C19.3165 36.3363 19.3137 37.039 19.5271 37.69C19.7404 38.3411 20.1585 38.9058 20.7189 39.3C21.2698 39.7067 21.9373 39.9247 22.6221 39.9212C23.3069 39.9178 23.9722 39.6932 24.5189 39.281L27.9999 36.719L31.4819 39.278C32.0318 39.6824 32.6957 39.9021 33.3783 39.9054C34.0609 39.9087 34.7269 39.6955 35.2807 39.2965C35.8345 38.8974 36.2474 38.333 36.4602 37.6844C36.673 37.0359 36.6747 36.3365 36.4649 35.687L35.1129 31.5L38.6729 28.9C39.2284 28.5035 39.6414 27.9388 39.8508 27.2893C40.0603 26.6398 40.0551 25.9402 39.8359 25.294ZM37.4929 27.285L33.3489 30.314C33.1787 30.4381 33.0521 30.6129 32.9871 30.8133C32.9221 31.0137 32.922 31.2295 32.9869 31.43L34.5619 36.3C34.6416 36.547 34.641 36.8129 34.56 37.0595C34.479 37.3061 34.322 37.5206 34.1114 37.6723C33.9008 37.824 33.6475 37.905 33.388 37.9037C33.1284 37.9024 32.876 37.8188 32.6669 37.665L28.5919 34.665C28.4203 34.5389 28.2129 34.4709 27.9999 34.4709C27.787 34.4709 27.5796 34.5389 27.4079 34.665L23.3329 37.665C23.124 37.8209 22.8709 37.9062 22.6102 37.9086C22.3495 37.9109 22.0949 37.8302 21.8832 37.6781C21.6715 37.526 21.5137 37.3104 21.4327 37.0626C21.3518 36.8148 21.3519 36.5477 21.4329 36.3L23.0129 31.43C23.0779 31.2295 23.0778 31.0137 23.0128 30.8133C22.9478 30.6129 22.8212 30.4381 22.6509 30.314L18.5069 27.285C18.2983 27.1322 18.1432 26.9173 18.0639 26.6711C17.9846 26.4249 17.9851 26.1599 18.0654 25.9141C18.1457 25.6682 18.3017 25.454 18.511 25.302C18.7203 25.1501 18.9723 25.0681 19.2309 25.068H24.3309C24.5427 25.0679 24.7489 25.0007 24.92 24.876C25.0911 24.7513 25.2182 24.5755 25.2829 24.374L26.8329 19.543C26.9125 19.2957 27.0685 19.0801 27.2784 18.9272C27.4882 18.7743 27.7412 18.6919 28.0009 18.6919C28.2607 18.6919 28.5137 18.7743 28.7235 18.9272C28.9334 19.0801 29.0894 19.2957 29.1689 19.543L30.7189 24.374C30.7837 24.5755 30.9108 24.7513 31.0819 24.876C31.253 25.0007 31.4592 25.0679 31.6709 25.068H36.7709C37.0296 25.0681 37.2816 25.1501 37.4909 25.302C37.7002 25.454 37.8562 25.6682 37.9365 25.9141C38.0168 26.1599 38.0173 26.4249 37.938 26.6711C37.8587 26.9173 37.7036 27.1322 37.4949 27.285H37.4929Z" fill="#4E944F"/>
</g>
<defs>
<clipPath id="clip0_914_2096">
<rect width="24" height="24" fill="white" transform="translate(16 16.5)"/>
</clipPath>
</defs>
</svg>
