<svg width="23" height="23" viewBox="0 0 23 23" fill="none" xmlns="http://www.w3.org/2000/svg">
<path fill-rule="evenodd" clip-rule="evenodd" d="M4.45218 21.8693L8.20606 20.4445L13.989 22.7639C14.7693 23.0787 15.6482 23.0787 16.4286 22.7639L21.4475 20.7427C22.3839 20.3617 23 19.4504 23 18.4315V3.28036C23 1.51591 21.2339 0.314821 19.6157 0.969243L15.8289 2.50173C15.4429 2.65912 14.9993 2.65912 14.6132 2.50173L8.54288 0.0579422C8.44431 0.0165231 8.33752 0 8.23073 0C8.12395 0 8.02538 0.0166162 7.92681 0.0497514L2.13569 2.26147C0.86248 2.75021 0.0164366 3.97621 0.00822231 5.3596L0 18.7712C0 21.0906 2.30004 22.6894 4.45218 21.8693ZM9.06038 2.05437L9.03571 18.9948L13.9643 20.9746V4.14191C13.9643 4.10049 13.9643 4.06734 13.9725 4.02592L9.06038 2.05437ZM15.6071 4.25789V21.2977C15.6811 21.2811 15.7468 21.2563 15.8207 21.2314L20.8396 19.2019C21.1518 19.0777 21.3571 18.7711 21.3571 18.4315V3.28036C21.3571 2.69221 20.7657 2.29464 20.2318 2.51002L16.445 4.04251C16.1739 4.1502 15.8946 4.22476 15.6071 4.25789ZM7.39286 2.02949L2.71898 3.81054C2.07826 4.05077 1.65929 4.67205 1.65108 5.3596L1.64286 18.7712C1.64286 19.9309 2.79283 20.7344 3.8689 20.3202L7.39286 18.9783V2.02949Z" fill="#7D7D7D"/>
</svg>
