<svg width="70" height="70" viewBox="0 0 70 70" fill="none" xmlns="http://www.w3.org/2000/svg">
<g clip-path="url(#clip0_683_2403)">
<path d="M35 70C54.33 70 70 54.33 70 35C70 15.67 54.33 0 35 0C15.67 0 0 15.67 0 35C0 54.33 15.67 70 35 70Z" fill="#4E944F"/>
<g opacity="0.2">
<path d="M52.5 35C52.5 25.375 44.625 17.5 35 17.5C26.7969 17.5 19.9062 23.1875 18.0469 30.7344C12.7969 31.6094 8.75 36.0938 8.75 41.5625C8.75 47.5781 13.6719 52.5 19.6875 52.5H28.4375C29.6406 52.5 30.625 51.5156 30.625 50.3125V44.2969C30.625 43.4219 29.8594 42.6562 28.9844 42.6562H25.5938C23.9531 42.6562 23.5156 41.5625 24.6094 40.25L33.0312 29.5312C34.125 28.2188 35.875 28.2188 36.8594 29.5312L45.2812 40.25C46.375 41.5625 45.9375 42.6562 44.2969 42.6562H40.9062C40.0313 42.6562 39.2656 43.4219 39.2656 44.2969V50.3125C39.2656 51.5156 40.25 52.5 41.4531 52.5H52.3906C57.2031 52.5 61.1406 48.5625 61.1406 43.75C61.1406 38.9375 57.3125 35 52.5 35Z" fill="#231F20"/>
</g>
<path d="M52.5 32.8125C52.5 23.1875 44.625 15.3125 35 15.3125C26.7969 15.3125 19.9062 21 18.0469 28.5469C12.7969 29.4219 8.75 33.9062 8.75 39.375C8.75 45.3906 13.6719 50.3125 19.6875 50.3125H28.4375C29.6406 50.3125 30.625 49.3281 30.625 48.125V42.1094C30.625 41.2344 29.8594 40.4688 28.9844 40.4688H25.5938C23.9531 40.4688 23.5156 39.375 24.6094 38.0625L33.0312 27.3438C34.125 26.0312 35.875 26.0312 36.8594 27.3438L45.2812 38.0625C46.375 39.375 45.9375 40.4688 44.2969 40.4688H40.9062C40.0313 40.4688 39.2656 41.2344 39.2656 42.1094V48.125C39.2656 49.3281 40.25 50.3125 41.4531 50.3125H52.3906C57.2031 50.3125 61.1406 46.375 61.1406 41.5625C61.1406 36.75 57.3125 32.8125 52.5 32.8125Z" fill="white"/>
</g>
<defs>
<clipPath id="clip0_683_2403">
<rect width="70" height="70" fill="white"/>
</clipPath>
</defs>
</svg>
