<svg width="56" height="57" viewBox="0 0 56 57" fill="none" xmlns="http://www.w3.org/2000/svg">
<rect x="4" y="4.5" width="48" height="48" rx="24" fill="#CADFCA"/>
<rect x="4" y="4.5" width="48" height="48" rx="24" stroke="#DAE8DA" stroke-width="8"/>
<path fill-rule="evenodd" clip-rule="evenodd" d="M24.25 18.9C22.1789 18.9 20.5 20.5118 20.5 22.5V34.5C20.5 36.4882 22.1789 38.1 24.25 38.1H31.75C33.8211 38.1 35.5 36.4882 35.5 34.5V26.1H31.75C29.6789 26.1 28 24.4882 28 22.5V18.9H24.25ZM30.5 20.5971L33.7322 23.7H31.75C31.0596 23.7 30.5 23.1627 30.5 22.5V20.5971ZM18 22.5C18 19.1863 20.7982 16.5 24.25 16.5H29.25C29.5815 16.5 29.8995 16.6264 30.1339 16.8515L37.6339 24.0515C37.8683 24.2765 38 24.5817 38 24.9V34.5C38 37.8137 35.2018 40.5 31.75 40.5H24.25C20.7982 40.5 18 37.8137 18 34.5V22.5ZM24.6161 30.0515L27.1161 27.6515C27.6043 27.1828 28.3957 27.1828 28.8839 27.6515L31.3839 30.0515C31.872 30.5201 31.872 31.2799 31.3839 31.7485C30.8957 32.2172 30.1043 32.2172 29.6161 31.7485L29.25 31.3971V34.5C29.25 35.1627 28.6904 35.7 28 35.7C27.3096 35.7 26.75 35.1627 26.75 34.5L26.75 31.3971L26.3839 31.7485C25.8957 32.2172 25.1043 32.2172 24.6161 31.7485C24.128 31.2799 24.128 30.5201 24.6161 30.0515Z" fill="#4E944F"/>
</svg>
