<svg width="55" height="55" viewBox="0 0 60 60" fill="none" xmlns="http://www.w3.org/2000/svg">
<circle cx="30" cy="30" r="30" fill="#DAE8DA"/>
<path d="M30 14.6667C32.0333 14.6667 33.9834 15.4744 35.4212 16.9122C36.859 18.35 37.6667 20.3 37.6667 22.3334C37.6667 24.3667 36.859 26.3167 35.4212 27.7545C33.9834 29.1923 32.0333 30 30 30C27.9667 30 26.0166 29.1923 24.5789 27.7545C23.1411 26.3167 22.3334 24.3667 22.3334 22.3334C22.3334 20.3 23.1411 18.35 24.5789 16.9122C26.0166 15.4744 27.9667 14.6667 30 14.6667ZM30 33.8334C38.4717 33.8334 45.3334 37.2642 45.3334 41.5V45.3334H14.6667V41.5C14.6667 37.2642 21.5284 33.8334 30 33.8334Z" fill="#4E944F"/>
</svg>
