<svg width="25" height="22" viewBox="0 0 25 22" fill="none" xmlns="http://www.w3.org/2000/svg">
    <path d="M15.6667 16.8333V19.1667C15.6667 19.7855 15.4208 20.379 14.9832 20.8166C14.5457 21.2542 13.9522 21.5 13.3333 21.5H2.83333C2.21449 21.5 1.621 21.2542 1.18342 20.8166C0.745833 20.379 0.5 19.7855 0.5 19.1667V2.83333C0.5 2.21449 0.745833 1.621 1.18342 1.18342C1.621 0.745833 2.21449 0.5 2.83333 0.5H13.3333C13.9522 0.5 14.5457 0.745833 14.9832 1.18342C15.4208 1.621 15.6667 2.21449 15.6667 2.83333V5.16667H13.3333V2.83333H2.83333V19.1667H13.3333V16.8333H15.6667ZM18.5833 4.58333L16.9337 6.233L20.534 9.83333H8.66667V12.1667H20.534L16.9337 15.767L18.5833 17.4167L25 11L18.5833 4.58333Z" fill="#7D7D7D"/>
</svg>
