<svg width="252" height="35" viewBox="0 0 252 35" fill="none" xmlns="http://www.w3.org/2000/svg">
<path d="M0 21.2528V35L4.03278 35C8.31416 35 9.17259 30.4363 9.17259 26.723C9.17259 23.7523 13.0371 23.2541 14.3124 23.4122C14.616 23.7545 15.9713 25.8004 18.7406 29.4031C21.5098 33.0059 23.7754 35 27.7835 35H34.16L23.7754 21.2528C26.5082 21.2528 31.9738 19.167 31.9738 10.8239C31.9738 2.48081 22.8037 0.131677 18.2187 0H0V4.89842C0 7.80587 3.40082 9.27013 5.10123 9.63882H10.6579L7.65184 4.89842H11.2956L15.9413 9.00677C18.583 8.45372 24.0122 7.67946 24.5952 9.00677C25.1782 10.3341 19.494 11.8774 16.579 12.4831C15.6316 17.6659 12.662 18.6983 11.2956 18.5666V13.7472C2.91499 14.2528 0.27328 18.9616 0 21.2528Z" fill="#4E944F"/>
<path d="M43.4703 31.5135C40.9969 29.1893 39.7601 25.8462 39.7601 21.4844C39.7601 17.1066 41.0049 13.7476 43.4944 11.4075C45.9839 9.05146 49.4372 7.87344 53.8541 7.87344C58.271 7.87344 61.7162 9.01962 64.1896 11.312C66.6631 13.5884 67.8998 16.8598 67.8998 21.1262V22.4873C67.8998 22.9171 67.7553 23.2753 67.4662 23.5618C67.1931 23.8324 66.8398 23.9678 66.4061 23.9678H48.2647C48.4253 25.9258 48.9874 27.3506 49.9511 28.2421C50.9309 29.1335 52.4888 29.5793 54.625 29.5793C56.7612 29.5793 58.2228 29.1017 59.0098 28.1465C59.7968 27.1914 60.7685 26.7059 61.925 26.6899H65.5147C65.9483 26.6899 66.3017 26.8332 66.5747 27.1198C66.8638 27.3904 67.0084 27.7406 67.0084 28.1704C67.0084 32.7392 62.6156 35.0157 53.83 34.9998C49.397 34.9998 45.9438 33.8377 43.4703 31.5135ZM48.2165 18.9293H59.4194C59.2587 15.1724 57.3956 13.2939 53.83 13.2939C50.2804 13.2939 48.4092 15.1724 48.2165 18.9293Z" fill="#4E944F"/>
<path d="M80.8043 26.7855C82.9726 26.7855 84.0568 27.868 84.0568 30.033V31.5373C84.0568 32.5402 83.7757 33.3282 83.2136 33.9013C82.6675 34.4744 81.8644 34.761 80.8043 34.761H77.841C76.7809 34.761 75.9698 34.4744 75.4077 33.9013C74.8616 33.3282 74.5886 32.5402 74.5886 31.5373V30.033C74.5886 28.9823 74.8696 28.1784 75.4318 27.6212C75.9939 27.064 76.797 26.7855 77.841 26.7855H80.8043ZM77.841 15.849C75.6727 15.849 74.5886 14.7665 74.5886 12.6014V11.0971C74.5886 10.0942 74.8696 9.30617 75.4318 8.73308C75.9939 8.15999 76.797 7.87344 77.841 7.87344H80.8043C81.8644 7.87344 82.6675 8.15999 83.2136 8.73308C83.7757 9.30617 84.0568 10.0942 84.0568 11.0971V12.6014C84.0568 14.7665 82.9726 15.849 80.8043 15.849H77.841Z" fill="#4E944F"/>
<path d="M87.9355 4.79306V2.54845C87.9355 1.89577 88.1523 1.35451 88.586 0.924696C89.0197 0.494878 89.5657 0.279968 90.2243 0.279968H120.797C121.456 0.279968 122.002 0.494878 122.436 0.924696C122.869 1.35451 123.086 1.89577 123.086 2.54845V4.79306C123.086 5.44575 122.869 5.987 122.436 6.41682C122.002 6.83072 121.456 7.03767 120.797 7.03767H110.052V32.3253C110.052 32.9462 109.827 33.4715 109.378 33.9013C108.944 34.3152 108.414 34.5222 107.787 34.5222H103.234C102.608 34.5222 102.07 34.3152 101.62 33.9013C101.186 33.4715 100.969 32.9462 100.969 32.3253V7.03767H90.2243C89.5657 7.03767 89.0197 6.83072 88.586 6.41682C88.1523 5.987 87.9355 5.44575 87.9355 4.79306Z" fill="#4E944F"/>
<path d="M142.89 14.4162L139.18 14.2729C137.011 14.2729 134.939 15.451 132.964 17.807V33.0656C132.964 33.4954 132.819 33.8456 132.53 34.1162C132.257 34.3869 131.912 34.5222 131.494 34.5222H126.098C125.664 34.5222 125.311 34.3869 125.037 34.1162C124.764 33.8456 124.628 33.4954 124.628 33.0656V9.83149C124.628 9.40167 124.764 9.05145 125.037 8.78082C125.327 8.49428 125.68 8.351 126.098 8.351H131.494C131.928 8.351 132.281 8.49428 132.554 8.78082C132.827 9.05145 132.964 9.40167 132.964 9.83149V11.3359C134.602 10.1578 136.176 9.29024 137.686 8.73307C139.212 8.15997 141.203 7.87343 143.661 7.87343C144.094 7.87343 144.448 8.0167 144.721 8.30325C145.01 8.57387 145.154 8.91614 145.154 9.33004V12.9596C145.154 13.3894 145.01 13.7397 144.721 14.0103C144.448 14.2809 144.094 14.4162 143.661 14.4162H142.89Z" fill="#4E944F"/>
<path d="M149.828 32.8029C147.708 31.3383 146.648 29.2688 146.648 26.5944C146.648 23.92 147.708 21.8664 149.828 20.4337C151.965 19.001 154.711 18.2846 158.068 18.2846H166.042C166.042 16.422 165.649 15.1246 164.862 14.3923C164.075 13.6601 162.694 13.2939 160.718 13.2939C158.759 13.2939 157.377 13.7795 156.574 14.7505C155.787 15.7057 154.815 16.1833 153.659 16.1833H150.069C149.636 16.1833 149.274 16.0479 148.985 15.7773C148.712 15.4908 148.576 15.1405 148.576 14.7266C148.576 10.1578 152.952 7.87343 161.706 7.87343C165.528 7.87343 168.596 8.72511 170.909 10.4285C173.222 12.1159 174.378 14.7346 174.378 18.2846V33.0656C174.378 33.4954 174.242 33.8456 173.969 34.1162C173.696 34.3869 173.342 34.5222 172.909 34.5222H168.259C167.825 34.5222 167.472 34.3869 167.199 34.1162C166.926 33.8297 166.789 33.4795 166.789 33.0656V32.3253C164.252 34.1242 161.32 35.0157 157.996 34.9998C154.687 34.9998 151.965 34.2675 149.828 32.8029ZM158.646 23.7051C157.522 23.7051 156.63 23.9757 155.972 24.517C155.329 25.0582 155.008 25.7587 155.008 26.6183C155.008 27.4779 155.345 28.1863 156.02 28.7435C156.695 29.3007 157.65 29.5793 158.887 29.5793C161.36 29.5793 163.746 28.8629 166.042 27.4302V23.7051H158.646Z" fill="#4E944F"/>
<path d="M178.619 8.351H183.244C183.935 8.351 184.585 8.54999 185.196 8.94797C185.806 9.33004 186.24 9.83149 186.497 10.4523L193.074 25.3288L199.627 10.4523C199.884 9.83149 200.318 9.33004 200.928 8.94797C201.538 8.54999 202.189 8.351 202.879 8.351H207.529C208.091 8.351 208.461 8.55795 208.637 8.97185C208.718 9.13105 208.75 9.338 208.734 9.5927C208.734 9.83149 208.661 10.118 208.517 10.4523L198.109 32.4208C197.82 33.0417 197.362 33.5511 196.736 33.9491C196.126 34.3311 195.491 34.5222 194.833 34.5222H191.291C190.633 34.5222 189.998 34.3311 189.388 33.9491C188.777 33.5511 188.328 33.0417 188.039 32.4208L177.631 10.4523C177.47 10.1021 177.39 9.80761 177.39 9.56882C177.39 8.75694 177.799 8.351 178.619 8.351Z" fill="#4E944F"/>
<path d="M213.962 31.5134C211.488 29.1892 210.252 25.8462 210.252 21.4843C210.252 17.1066 211.496 13.7476 213.986 11.4075C216.475 9.05145 219.929 7.87343 224.346 7.87343C228.762 7.87343 232.208 9.01961 234.681 11.312C237.155 13.5884 238.391 16.8598 238.391 21.1262V22.4873C238.391 22.9171 238.247 23.2753 237.958 23.5618C237.685 23.8324 237.331 23.9677 236.898 23.9677H218.756C218.917 25.9258 219.479 27.3506 220.443 28.2421C221.422 29.1335 222.98 29.5793 225.116 29.5793C227.253 29.5793 228.714 29.1017 229.501 28.1465C230.288 27.1914 231.26 26.7058 232.416 26.6899H236.006C236.44 26.6899 236.793 26.8332 237.066 27.1197C237.355 27.3904 237.5 27.7406 237.5 28.1704C237.5 32.7392 233.107 35.0157 224.321 34.9998C219.888 34.9998 216.435 33.8377 213.962 31.5134ZM218.708 18.9293H229.911C229.75 15.1724 227.887 13.2939 224.321 13.2939C220.772 13.2939 218.901 15.1724 218.708 18.9293Z" fill="#4E944F"/>
<path d="M242.824 33.0656V1.76045C242.824 1.33064 242.961 0.980413 243.234 0.709787C243.523 0.423241 243.876 0.279968 244.294 0.279968H249.691C250.108 0.279968 250.453 0.423241 250.726 0.709787C251.016 0.980413 251.16 1.33064 251.16 1.76045V33.0656C251.16 33.4795 251.016 33.8297 250.726 34.1162C250.453 34.3869 250.108 34.5222 249.691 34.5222H244.294C243.876 34.5222 243.523 34.3869 243.234 34.1162C242.961 33.8297 242.824 33.4795 242.824 33.0656Z" fill="#4E944F"/>
</svg>
