<svg width="153" height="21" viewBox="0 0 153 21" fill="none" xmlns="http://www.w3.org/2000/svg">
<path d="M0 12.7517V21L2.45666 21C5.06477 21 5.5877 18.2617 5.5877 16.0337C5.5877 14.2514 7.94186 13.9525 8.71874 14.0473C8.90371 14.2527 9.72931 15.4802 11.4163 17.6419C13.1032 19.8035 14.4833 21 16.925 21H20.8094L14.4833 12.7517C16.1481 12.7517 19.4776 11.5002 19.4776 6.49434C19.4776 1.48848 13.8914 0.0790061 11.0983 0H0V2.93905C0 4.68351 2.07169 5.56206 3.10753 5.78328H6.49253L4.6613 2.93905H6.88097L9.71104 5.40405C11.3203 5.07222 14.6276 4.60767 14.9827 5.40405C15.3379 6.20044 11.8752 7.1264 10.0995 7.48983C9.52237 10.5995 7.71334 11.2189 6.88097 11.1399V8.24829C1.77573 8.55168 0.166475 11.377 0 12.7517Z" fill="#7D7D7D"/>
<path d="M26.4808 18.9081C24.974 17.5136 24.2206 15.5078 24.2206 12.8907C24.2206 10.264 24.9789 8.24867 26.4955 6.8446C28.012 5.43098 30.1156 4.72416 32.8063 4.72416C35.497 4.72416 37.5957 5.41187 39.1024 6.78729C40.6092 8.15315 41.3626 10.116 41.3626 12.6758V13.4924C41.3626 13.7503 41.2745 13.9652 41.0984 14.1372C40.9321 14.2995 40.7168 14.3807 40.4527 14.3807H29.4014C29.4992 15.5556 29.8417 16.4104 30.4287 16.9453C31.0256 17.4802 31.9746 17.7476 33.2759 17.7476C34.5772 17.7476 35.4676 17.4611 35.947 16.888C36.4265 16.3149 37.0184 16.0236 37.7229 16.014H39.9096C40.1738 16.014 40.3891 16.1 40.5554 16.2719C40.7315 16.4343 40.8196 16.6444 40.8196 16.9023C40.8196 19.6436 38.1436 21.0095 32.7916 20.9999C30.0912 20.9999 27.9876 20.3027 26.4808 18.9081ZM29.372 11.3577H36.1965C36.0987 9.10353 34.9637 7.97645 32.7916 7.97645C30.6293 7.97645 29.4894 9.10353 29.372 11.3577Z" fill="#7D7D7D"/>
<path d="M49.2237 16.0713C50.5446 16.0713 51.205 16.7209 51.205 18.0199V18.9225C51.205 19.5242 51.0338 19.997 50.6913 20.3409C50.3587 20.6847 49.8695 20.8567 49.2237 20.8567H47.4185C46.7728 20.8567 46.2787 20.6847 45.9362 20.3409C45.6035 19.997 45.4372 19.5242 45.4372 18.9225V18.0199C45.4372 17.3895 45.6084 16.9071 45.9509 16.5728C46.2933 16.2385 46.7825 16.0713 47.4185 16.0713H49.2237ZM47.4185 9.50947C46.0976 9.50947 45.4372 8.85997 45.4372 7.56096V6.65834C45.4372 6.0566 45.6084 5.5838 45.9509 5.23995C46.2933 4.89609 46.7825 4.72416 47.4185 4.72416H49.2237C49.8695 4.72416 50.3587 4.89609 50.6913 5.23995C51.0338 5.5838 51.205 6.0566 51.205 6.65834V7.56096C51.205 8.85997 50.5446 9.50947 49.2237 9.50947H47.4185Z" fill="#7D7D7D"/>
<path d="M53.5678 2.87594V1.52918C53.5678 1.13757 53.6999 0.812817 53.9641 0.554927C54.2283 0.297036 54.5609 0.168091 54.9621 0.168091H73.5863C73.9875 0.168091 74.3202 0.297036 74.5843 0.554927C74.8485 0.812817 74.9806 1.13757 74.9806 1.52918V2.87594C74.9806 3.26755 74.8485 3.5923 74.5843 3.85019C74.3202 4.09853 73.9875 4.2227 73.5863 4.2227H67.0407V19.3953C67.0407 19.7678 66.9037 20.083 66.6298 20.3409C66.3656 20.5892 66.0427 20.7134 65.6611 20.7134H62.8873C62.5057 20.7134 62.1779 20.5892 61.904 20.3409C61.6398 20.083 61.5077 19.7678 61.5077 19.3953V4.2227H54.9621C54.5609 4.2227 54.2283 4.09853 53.9641 3.85019C53.6999 3.5923 53.5678 3.26755 53.5678 2.87594Z" fill="#7D7D7D"/>
<path d="M87.0445 8.64982L84.7844 8.56386C83.4635 8.56386 82.2014 9.27067 80.9979 10.6843V19.8394C80.9979 20.0973 80.9098 20.3074 80.7337 20.4698C80.5674 20.6322 80.357 20.7134 80.1026 20.7134H76.8151C76.551 20.7134 76.3357 20.6322 76.1694 20.4698C76.003 20.3074 75.9199 20.0973 75.9199 19.8394V5.89899C75.9199 5.6411 76.003 5.43097 76.1694 5.26859C76.3455 5.09667 76.5607 5.0107 76.8151 5.0107H80.1026C80.3668 5.0107 80.5821 5.09667 80.7484 5.26859C80.9147 5.43097 80.9979 5.6411 80.9979 5.89899V6.80161C81.9959 6.0948 82.9547 5.57424 83.8745 5.23994C84.804 4.89608 86.0172 4.72416 87.5142 4.72416C87.7784 4.72416 87.9936 4.81012 88.1599 4.98205C88.3361 5.14442 88.4241 5.34978 88.4241 5.59812V7.77586C88.4241 8.03375 88.3361 8.24389 88.1599 8.40626C87.9936 8.56864 87.7784 8.64982 87.5142 8.64982H87.0445Z" fill="#7D7D7D"/>
<path d="M91.2713 19.6818C89.9798 18.8031 89.3341 17.5614 89.3341 15.9567C89.3341 14.3521 89.9798 13.1199 91.2713 12.2603C92.5726 11.4007 94.2457 10.9708 96.2906 10.9708H101.148C101.148 9.85331 100.909 9.07487 100.429 8.6355C99.9499 8.19613 99.1085 7.97644 97.905 7.97644C96.7114 7.97644 95.8699 8.26777 95.3807 8.85041C94.9013 9.4235 94.3093 9.71004 93.6049 9.71004H91.4181C91.1539 9.71004 90.9338 9.62885 90.7577 9.46648C90.5913 9.29455 90.5082 9.08442 90.5082 8.83608C90.5082 6.0948 93.1744 4.72416 98.5068 4.72416C100.835 4.72416 102.704 5.23516 104.113 6.25717C105.522 7.26963 106.227 8.84085 106.227 10.9708V19.8394C106.227 20.0973 106.143 20.3074 105.977 20.4698C105.811 20.6322 105.595 20.7134 105.331 20.7134H102.499C102.235 20.7134 102.019 20.6322 101.853 20.4698C101.687 20.2979 101.603 20.0877 101.603 19.8394V19.3953C100.058 20.4746 98.2719 21.0095 96.2466 20.9999C94.2311 20.9999 92.5726 20.5605 91.2713 19.6818ZM96.6429 14.2231C95.958 14.2231 95.4149 14.3855 95.0138 14.7103C94.6224 15.035 94.4267 15.4553 94.4267 15.9711C94.4267 16.4868 94.6322 16.9119 95.0431 17.2462C95.4541 17.5805 96.0362 17.7476 96.7896 17.7476C98.2964 17.7476 99.7494 17.3178 101.148 16.4582V14.2231H96.6429Z" fill="#7D7D7D"/>
<path d="M108.81 5.0107H111.627C112.048 5.0107 112.444 5.1301 112.816 5.36888C113.188 5.59812 113.452 5.89899 113.609 6.2715L117.615 15.1974L121.607 6.2715C121.764 5.89899 122.028 5.59812 122.4 5.36888C122.772 5.1301 123.168 5.0107 123.589 5.0107H126.421C126.764 5.0107 126.989 5.13487 127.096 5.38321C127.145 5.47873 127.165 5.6029 127.155 5.75572C127.155 5.89899 127.111 6.07092 127.023 6.2715L120.683 19.4526C120.507 19.8251 120.228 20.1307 119.846 20.3695C119.474 20.5988 119.088 20.7134 118.687 20.7134H116.529C116.128 20.7134 115.742 20.5988 115.37 20.3695C114.998 20.1307 114.724 19.8251 114.548 19.4526L108.208 6.2715C108.11 6.06137 108.061 5.88467 108.061 5.74139C108.061 5.25427 108.311 5.0107 108.81 5.0107Z" fill="#7D7D7D"/>
<path d="M130.34 18.9081C128.833 17.5136 128.08 15.5078 128.08 12.8907C128.08 10.264 128.838 8.24866 130.354 6.84459C131.871 5.43097 133.975 4.72416 136.665 4.72416C139.356 4.72416 141.455 5.41187 142.961 6.78728C144.468 8.15315 145.222 10.116 145.222 12.6758V13.4924C145.222 13.7503 145.133 13.9652 144.957 14.1372C144.791 14.2995 144.576 14.3807 144.312 14.3807H133.26C133.358 15.5556 133.701 16.4104 134.288 16.9453C134.884 17.4802 135.834 17.7476 137.135 17.7476C138.436 17.7476 139.327 17.4611 139.806 16.888C140.285 16.3149 140.877 16.0236 141.582 16.014H143.769C144.033 16.014 144.248 16.1 144.414 16.2719C144.59 16.4343 144.679 16.6444 144.679 16.9023C144.679 19.6436 142.003 21.0095 136.651 20.9999C133.95 20.9999 131.847 20.3027 130.34 18.9081ZM133.231 11.3577H140.055C139.958 9.10352 138.823 7.97644 136.651 7.97644C134.488 7.97644 133.348 9.10352 133.231 11.3577Z" fill="#7D7D7D"/>
<path d="M147.922 19.8394V1.05638C147.922 0.79849 148.005 0.588357 148.171 0.425981C148.348 0.254054 148.563 0.168091 148.817 0.168091H152.105C152.359 0.168091 152.57 0.254054 152.736 0.425981C152.912 0.588357 153 0.79849 153 1.05638V19.8394C153 20.0877 152.912 20.2979 152.736 20.4698C152.57 20.6322 152.359 20.7134 152.105 20.7134H148.817C148.563 20.7134 148.348 20.6322 148.171 20.4698C148.005 20.2979 147.922 20.0877 147.922 19.8394Z" fill="#7D7D7D"/>
</svg>
