<svg width="17" height="17" viewBox="0 0 17 17" fill="none" xmlns="http://www.w3.org/2000/svg">
<g clip-path="url(#clip0_633_2105)">
<path d="M16.4023 6.5965C16.3261 6.36009 16.186 6.14938 15.9975 5.98768C15.8089 5.82599 15.5793 5.71962 15.3341 5.68036L11.4855 5.05491L9.70145 1.58804C9.58781 1.36733 9.41557 1.1822 9.20363 1.05294C8.99169 0.923681 8.74824 0.855301 8.5 0.855301C8.25175 0.855301 8.0083 0.923681 7.79636 1.05294C7.58442 1.1822 7.41218 1.36733 7.29854 1.58804L5.51447 5.05491L1.666 5.68036C1.42098 5.72024 1.19168 5.82684 1.00326 5.98846C0.814842 6.15008 0.674581 6.36048 0.597868 6.59657C0.521155 6.83266 0.510955 7.08532 0.568387 7.32682C0.625819 7.56833 0.748663 7.78935 0.923442 7.96563L3.66934 10.7337L3.075 14.5871C3.03687 14.8325 3.06716 15.0837 3.16254 15.3131C3.25793 15.5424 3.41471 15.741 3.61566 15.887C3.8166 16.033 4.05391 16.1207 4.3015 16.1406C4.54908 16.1604 4.79734 16.1116 5.01898 15.9995L8.5 14.2434L11.9811 15.9995C12.2028 16.1114 12.451 16.16 12.6985 16.1401C12.9459 16.1201 13.1831 16.0323 13.384 15.8864C13.5849 15.7405 13.7417 15.542 13.8371 15.3128C13.9326 15.0836 13.963 14.8325 13.9251 14.5871L13.3308 10.7337L16.0767 7.96563C16.252 7.78969 16.3752 7.56867 16.4327 7.32702C16.4902 7.08538 16.4797 6.83254 16.4023 6.5965ZM15.3222 7.2174L12.1988 10.366L12.875 14.7492C12.8834 14.8017 12.877 14.8554 12.8567 14.9046C12.8364 14.9537 12.8029 14.9962 12.7599 15.0275C12.7169 15.0587 12.6661 15.0775 12.6131 15.0816C12.5601 15.0857 12.507 15.0751 12.4596 15.0509L8.5 13.0533L4.54033 15.051C4.49299 15.0752 4.43988 15.0858 4.38689 15.0817C4.33389 15.0775 4.28307 15.0588 4.24007 15.0275C4.19706 14.9963 4.16355 14.9538 4.14323 14.9046C4.12292 14.8555 4.11661 14.8017 4.12499 14.7492L4.80117 10.366L1.67778 7.21737C1.64048 7.17968 1.61428 7.13246 1.60203 7.08087C1.58978 7.02929 1.59197 6.97532 1.60836 6.9249C1.62474 6.87447 1.65469 6.82952 1.69492 6.79499C1.73514 6.76045 1.7841 6.73765 1.83643 6.72908L6.21396 6.01767L8.2433 2.07423C8.26757 2.02706 8.30436 1.98749 8.34965 1.95986C8.39493 1.93224 8.44695 1.91762 8.5 1.91762C8.55304 1.91762 8.60506 1.93224 8.65035 1.95986C8.69563 1.98749 8.73242 2.02706 8.75669 2.07423L10.786 6.01767L15.1636 6.72908C15.2159 6.73765 15.2648 6.76045 15.3051 6.79499C15.3453 6.82952 15.3753 6.87447 15.3916 6.9249C15.408 6.97532 15.4102 7.02929 15.398 7.08087C15.3857 7.13246 15.3595 7.17968 15.3222 7.21737L15.3222 7.2174Z" fill="black"/>
</g>
<defs>
<clipPath id="clip0_633_2105">
<rect width="17" height="17" fill="white"/>
</clipPath>
</defs>
</svg>
