<svg width="15" height="15" viewBox="0 0 9 9" fill="none" xmlns="http://www.w3.org/2000/svg">
<path d="M4.5 0.75C3.70952 0.74996 2.95097 1.06191 2.38922 1.61805C1.82746 2.17418 1.5079 2.92956 1.5 3.72C1.5 5.775 4.14375 8.0625 4.25625 8.16C4.32417 8.2181 4.41062 8.25002 4.5 8.25002C4.58938 8.25002 4.67583 8.2181 4.74375 8.16C4.875 8.0625 7.5 5.775 7.5 3.72C7.49209 2.92956 7.17254 2.17418 6.61078 1.61805C6.04903 1.06191 5.29048 0.74996 4.5 0.75ZM4.5 7.36875C3.87375 6.7725 2.25 5.11875 2.25 3.72C2.25 3.12326 2.48705 2.55097 2.90901 2.12901C3.33097 1.70705 3.90326 1.47 4.5 1.47C5.09674 1.47 5.66903 1.70705 6.09099 2.12901C6.51295 2.55097 6.75 3.12326 6.75 3.72C6.75 5.1075 5.12625 6.7725 4.5 7.36875Z" fill="#D0D0D0"/>
<path d="M4.5 2.25C4.24041 2.25 3.98665 2.32698 3.77081 2.4712C3.55498 2.61542 3.38675 2.8204 3.28741 3.06023C3.18807 3.30006 3.16208 3.56396 3.21272 3.81856C3.26336 4.07316 3.38837 4.30702 3.57192 4.49058C3.75548 4.67413 3.98934 4.79914 4.24394 4.84978C4.49854 4.90042 4.76244 4.87443 5.00227 4.77509C5.2421 4.67575 5.44709 4.50753 5.5913 4.29169C5.73552 4.07585 5.8125 3.82209 5.8125 3.5625C5.8125 3.2144 5.67422 2.88056 5.42808 2.63442C5.18194 2.38828 4.8481 2.25 4.5 2.25ZM4.5 4.125C4.38875 4.125 4.28 4.09201 4.18749 4.0302C4.09499 3.96839 4.02289 3.88054 3.98032 3.77776C3.93774 3.67498 3.9266 3.56188 3.94831 3.45276C3.97001 3.34365 4.02359 3.24342 4.10225 3.16475C4.18092 3.08609 4.28115 3.03251 4.39026 3.01081C4.49938 2.9891 4.61248 3.00024 4.71526 3.04282C4.81804 3.08539 4.90589 3.15749 4.9677 3.24999C5.02951 3.34249 5.0625 3.45125 5.0625 3.5625C5.0625 3.71168 5.00324 3.85476 4.89775 3.96025C4.79226 4.06574 4.64918 4.125 4.5 4.125Z" fill="#D0D0D0"/>
</svg>
